<?xml version="1.0" encoding="UTF-8" standalone="no"?>
<svg
   xmlns:dc="http://purl.org/dc/elements/1.1/"
   xmlns:cc="http://creativecommons.org/ns#"
   xmlns:rdf="http://www.w3.org/1999/02/22-rdf-syntax-ns#"
   xmlns:svg="http://www.w3.org/2000/svg"
   xmlns="http://www.w3.org/2000/svg"
   xmlns:sodipodi="http://sodipodi.sourceforge.net/DTD/sodipodi-0.dtd"
   xmlns:inkscape="http://www.inkscape.org/namespaces/inkscape"
   inkscape:version="1.0 (4035a4fb49, 2020-05-01)"
   inkscape:export-ydpi="325"
   inkscape:export-xdpi="325"
   inkscape:export-filename="E:\Projects\mattermost-lunchbot-plugin\assets\lunch.png"
   sodipodi:docname="lunch.svg"
   id="svg4"
   version="1.1"
   width="100"
   height="100">
  <metadata
     id="metadata10">
    <rdf:RDF>
      <cc:Work
         rdf:about="">
        <dc:format>image/svg+xml</dc:format>
        <dc:type
           rdf:resource="http://purl.org/dc/dcmitype/StillImage" />
      </cc:Work>
    </rdf:RDF>
  </metadata>
  <defs
     id="defs8" />
  <sodipodi:namedview
     inkscape:current-layer="svg4"
     inkscape:window-maximized="1"
     inkscape:window-y="-8"
     inkscape:window-x="1912"
     inkscape:cy="50"
     inkscape:cx="50"
     inkscape:zoom="8.5"
     showgrid="false"
     id="namedview6"
     inkscape:window-height="1017"
     inkscape:window-width="1920"
     inkscape:pageshadow="2"
     inkscape:pageopacity="0"
     guidetolerance="10"
     gridtolerance="10"
     objecttolerance="10"
     borderopacity="1"
     bordercolor="#666666"
     pagecolor="#ffffff" />
  <path
     id="path2"
     d="M80.942 21.341a5.335 5.335 0 11-5.336 5.335 5.336 5.336 0 015.336-5.335zM59.229 42.269h10.695l6.863-6.937a2.758 2.758 0 012.31-1.26h3.087a2.77 2.77 0 012.76 2.76v21.402a2.769 2.769 0 01-2.76 2.759h-3.087a2.767 2.767 0 01-2.761-2.759V41.677l-4.685 4.731H59.229a2.07 2.07 0 110-4.139zm-18.458 0a2.07 2.07 0 010 4.14H28.346l-4.682-4.731v16.558a2.768 2.768 0 01-2.761 2.759h-3.087a2.768 2.768 0 01-2.761-2.759V36.832a2.769 2.769 0 012.761-2.76h3.087c.965 0 1.815.504 2.308 1.26l6.862 6.937zM19.057 21.341a5.336 5.336 0 110 10.672 5.336 5.336 0 010-10.672zM29.21 67.127h-3.96l5.182 10.537a.692.692 0 01-.619.995.69.69 0 01-.62-.385l-5.48-11.147H11.791l-5.48 11.147a.688.688 0 01-.925.315.69.69 0 01-.314-.925l5.64-11.469-5.42-21.961a2.073 2.073 0 011.513-2.507 2.074 2.074 0 012.507 1.515l4.873 19.743H29.21a2.07 2.07 0 012.07 2.072c0 1.143-.925 2.07-2.07 2.07zm38.3 10.843H32.835V47.534h34.677V77.97zm27.104.619a.688.688 0 01-.925-.315l-5.481-11.147h-11.92l-5.481 11.147a.688.688 0 01-.923.315.691.691 0 01-.316-.925l5.182-10.537h-3.96a2.07 2.07 0 110-4.141h15.029l4.874-19.743a2.07 2.07 0 114.02.992l-5.419 21.961 5.639 11.469a.698.698 0 01-.319.924zM50.171 50.293H35.595V75.21h14.576z" />
</svg>
